<svg id="jesus2" enable-background="new 0 0 300 300" height="512" viewBox="0 0 300 300" width="512" xmlns="http://www.w3.org/2000/svg"><path d="m258 80h-20.694c-.224 0-.439.031-.653.066-.214-.035-.429-.066-.653-.066h-39.512c-8.681-2.137-17.563-3.41-26.488-3.831v-20.169c0-11.028-8.972-20-20-20s-20 8.972-20 20v20.038c-10.271.186-20.512 1.507-30.488 3.962h-39.512c-.229 0-.451.031-.67.068-.219-.037-.44-.068-.67-.068h-16.66c-2.209 0-4 1.791-4 4 0 11.028 8.972 20 20 20h2.255c2.653 6.083 6.955 12.077 13.956 15.578.556.277 1.168.422 1.789.422h30v34c0 1.337.668 2.586 1.781 3.328l10.219 6.813v19.859 76c0 2.209 1.791 4 4 4h52c2.209 0 4-1.791 4-4v-21.907c5.691 3.201 9.599 5.178 10.206 5.483.566.284 1.181.425 1.794.425.73 0 1.459-.2 2.101-.596 1.181-.729 1.899-2.017 1.899-3.404v-44c0-2.209-1.791-4-4-4h-3.342c-2.975 0-5.879-.413-8.658-1.185v-26.674l10.219-6.812c1.113-.742 1.781-1.991 1.781-3.328v-34h30c.621 0 1.233-.145 1.789-.422 7.001-3.501 11.303-9.495 13.956-15.578h6.255c11.028 0 20-8.972 20-20 0-2.211-1.791-4.002-4-4.002zm-108-36c6.617 0 12 5.383 12 12v20h-24v-20c0-6.617 5.383-12 12-12zm-103.314 44h9.551c.209 2.115.602 4.9 1.349 7.983-5.035-.172-9.294-3.451-10.9-7.983zm67.314 63.859v-35.859c0-2.209-1.791-4-4-4h-33.006c-9.309-5.248-11.95-17.6-12.699-24h35.428c3.019 3.343 9.016 9.077 18.277 14.108v52.418zm56 104.141h-44v-57.248c10.928 13.4 29.864 26.217 44 34.694zm16-22.64c-5.77-3.144-15.139-8.484-24.811-14.989-19.807-13.32-31.953-25.404-35.189-34.997v-21.374-56.123c2.487 1.004 5.15 1.924 7.981 2.735-.021.718-.057 1.931-.109 3.457-.721 21.093 3.97 41.894 13.565 60.151 1.55 2.95 3.133 5.745 4.704 8.309 7.356 12.003 19.977 19.244 33.858 19.467v33.364zm-27.038-57.011c-1.479-2.414-2.974-5.056-4.442-7.851-8.951-17.03-13.326-36.449-12.651-56.156.023-.694.044-1.318.061-1.869 5.174.954 10.815 1.522 16.961 1.522 2.299 0 4.67-.079 7.109-.244v60.249c0 2.209 1.791 4 4 4v11.356c-4.407-2.666-8.209-6.391-11.038-11.007zm60.044-64.349h-33.006c-2.209 0-4 1.791-4 4v35.859l-8 5.333v-61.192c0-2.209-1.791-4-4-4s-4 1.791-4 4v7.724c-10.498.705-37.773.517-56.948-17.588 7.729-1.416 15.582-2.136 23.44-2.136h31.016c10.615 0 21.221 1.306 31.522 3.881.318.079.643.119.97.119h35.704c-.749 6.403-3.392 18.753-12.698 24zm22.994-16h-3.589c.75-3.09 1.144-5.881 1.353-8h13.551c-1.651 4.656-6.1 8-11.315 8z"/></svg>