<svg width="512" height="512" viewBox="0 0 512 512" fill="none" xmlns="http://www.w3.org/2000/svg">
<path d="M440.32 136.533H405.002C404.62 136.533 404.253 136.586 403.888 136.646C403.522 136.586 403.156 136.533 402.773 136.533H335.339C320.524 132.886 305.365 130.714 290.133 129.995V95.5733C290.133 76.7522 274.821 61.4399 256 61.4399C237.179 61.4399 221.867 76.7522 221.867 95.5733V129.771C204.337 130.089 186.859 132.343 169.834 136.533H102.4C102.009 136.533 101.63 136.586 101.256 136.649C100.883 136.586 100.506 136.533 100.113 136.533H71.6799C67.9099 136.533 64.8533 139.59 64.8533 143.36C64.8533 162.181 80.1655 177.493 98.9866 177.493H102.835C107.363 187.875 114.705 198.105 126.653 204.08C127.602 204.552 128.647 204.8 129.707 204.8H180.907V262.827C180.907 265.108 182.047 267.24 183.946 268.506L201.387 280.134V314.027V378.88V443.733C201.387 447.503 204.443 450.56 208.213 450.56H296.96C300.73 450.56 303.787 447.503 303.787 443.733V406.345C313.499 411.808 320.169 415.182 321.205 415.703C322.171 416.188 323.22 416.428 324.267 416.428C325.512 416.428 326.757 416.087 327.852 415.411C329.868 414.167 331.093 411.969 331.093 409.602V334.508C331.093 330.738 328.037 327.682 324.267 327.682H318.563C313.486 327.682 308.529 326.977 303.787 325.659V280.136L321.227 268.51C323.127 267.243 324.267 265.112 324.267 262.83V204.803H375.467C376.526 204.803 377.571 204.556 378.52 204.083C390.468 198.108 397.81 187.878 402.338 177.497H413.013C431.834 177.497 447.147 162.184 447.147 143.363C447.147 139.59 444.09 136.533 440.32 136.533ZM256 75.0933C267.293 75.0933 276.48 84.2803 276.48 95.5733V129.707H235.52V95.5733C235.52 84.2803 244.707 75.0933 256 75.0933ZM79.6774 150.187H95.9778C96.3344 153.796 97.0052 158.549 98.28 163.811C89.687 163.517 82.4183 157.921 79.6774 150.187ZM194.56 259.173V197.973C194.56 194.203 191.503 191.147 187.733 191.147H131.403C115.516 182.19 111.008 161.109 109.73 150.187H170.194C175.346 155.892 185.581 165.678 201.387 174.264V263.724L194.56 259.173ZM290.133 436.907H215.04V339.203C233.69 362.073 266.008 383.947 290.133 398.414V436.907ZM317.44 398.268C307.592 392.902 291.603 383.788 275.096 372.686C241.292 349.954 220.563 329.33 215.04 312.958V276.48V180.697C219.284 182.41 223.829 183.98 228.661 185.364C228.625 186.59 228.564 188.66 228.475 191.264C227.244 227.263 235.25 262.763 251.626 293.922C254.271 298.957 256.973 303.727 259.654 308.103C272.208 328.588 293.748 340.946 317.438 341.326V398.268H317.44ZM271.295 300.969C268.771 296.849 266.219 292.34 263.714 287.57C248.438 258.505 240.971 225.364 242.123 191.73C242.162 190.546 242.198 189.481 242.227 188.541C251.057 190.169 260.685 191.138 271.174 191.138C275.098 191.138 279.144 191.003 283.307 190.722V293.547C283.307 297.317 286.363 300.373 290.133 300.373V319.754C282.612 315.204 276.123 308.847 271.295 300.969ZM373.77 191.147H317.44C313.67 191.147 310.613 194.203 310.613 197.973V259.173L296.96 268.274V163.84C296.96 160.07 293.903 157.013 290.133 157.013C286.363 157.013 283.307 160.07 283.307 163.84V177.022C265.39 178.225 218.841 177.905 186.115 147.005C199.306 144.589 212.709 143.36 226.12 143.36H279.054C297.17 143.36 315.271 145.589 332.851 149.984C333.394 150.118 333.949 150.187 334.507 150.187H395.441C394.163 161.114 389.652 182.192 373.77 191.147ZM413.013 163.84H406.888C408.168 158.566 408.84 153.803 409.197 150.187H432.324C429.507 158.133 421.914 163.84 413.013 163.84Z" fill="white"/>
</svg>
